<svg viewBox="0 0 271.47 62.93" xmlns:xlink="http://www.w3.org/1999/xlink" xmlns="http://www.w3.org/2000/svg" id="Layer_1"><defs><style>.cls-1{fill:#231f20;}.cls-2{fill:none;filter:url(#drop-shadow-1);}.cls-3{fill:#8a5d3b;}.cls-4{fill:#fff;}.cls-5{fill:#ec1c24;}</style><filter filterUnits="userSpaceOnUse" height="46" width="192" y="0" x="79.47" id="drop-shadow-1"><feOffset dy="2" dx="0"></feOffset><feGaussianBlur stdDeviation="2" result="blur"></feGaussianBlur><feFlood flood-opacity=".75" flood-color="#231f20"></feFlood><feComposite operator="in" in2="blur"></feComposite><feComposite in="SourceGraphic"></feComposite></filter></defs><path d="M87.59,56.93c-.11,0-.45-.04-.5-.52v-.03s0-.03,0-.03c.15-.89.35-1.9.59-2.98.2-.92.35-1.62.45-2.08-.81-.28-1.14-.53-1.14-.84,0-.25.12-.38.22-.45.12-.08.25-.13.39-.13.11,0,.21.01.32.04.09.03.18.06.27.09.07.03.14.05.2.09l1.23-5.75c-.14.1-.26.24-.35.4h0s0,.03,0,.03c-.13.17-.31.26-.52.26-.3,0-.5-.19-.5-.48,0-.06.01-.13.05-.23v-.02s.02-.02.02-.02c.35-.66.92-1.08,1.71-1.26.17-.25.36-.31.51-.31.18,0,.32.08.4.21,1.06.03,1.9.4,2.52,1.12.63.73.95,1.57.95,2.48,0,1.49-.39,2.7-1.15,3.61-.83,1-2.02,1.5-3.52,1.5-.16,0-.33-.02-.51-.05-.1.51-.25,1.22-.44,2.1-.22,1.03-.4,1.93-.53,2.68-.03.17-.11.31-.24.42-.13.11-.26.17-.39.17ZM89.44,50.44c.18.02.41.04.7.04.4,0,.81-.1,1.2-.29.4-.19.75-.46,1.04-.78.61-.7.92-1.56.92-2.56,0-.77-.24-1.42-.73-1.99-.44-.51-1.02-.78-1.76-.82l-1.37,6.4Z" class="cls-4"></path><path d="M88.41,51.12c-.79-.25-1.18-.48-1.18-.68,0-.11.04-.2.12-.25.08-.05.16-.08.24-.08s.17.01.25.03c.08.02.16.05.24.08.08.03.16.07.24.11.08.04.16.07.22.1l1.39-6.53c-.41.13-.72.36-.91.71-.08.11-.19.16-.32.16-.17,0-.25-.08-.25-.24,0-.03.01-.08.03-.15.33-.62.88-1.01,1.65-1.16.1-.19.22-.28.35-.28s.21.07.23.21h.05c1.04,0,1.85.35,2.44,1.04.59.69.89,1.46.89,2.31,0,1.43-.36,2.58-1.09,3.45-.79.94-1.9,1.41-3.33,1.41-.22,0-.46-.03-.7-.1-.1.52-.27,1.3-.49,2.34-.22,1.04-.4,1.93-.53,2.69-.02.11-.07.21-.16.28-.08.07-.16.11-.23.11-.15,0-.23-.1-.25-.29.15-.89.35-1.88.59-2.97.24-1.09.4-1.86.49-2.3ZM89.14,50.63c.22.06.55.09.99.09s.88-.1,1.31-.31.81-.49,1.12-.84c.65-.75.98-1.66.98-2.72,0-.82-.26-1.54-.79-2.15-.53-.61-1.24-.91-2.15-.91l-1.46,6.85Z" class="cls-4"></path><path d="M94.8,57.09c-.2,0-.44-.13-.44-.5v-.02l.32-1.68c.16-.84.27-1.45.33-1.8.06-.36.13-.75.2-1.18.07-.42.22-1.03.45-1.81,0-.02,0-.04,0-.06v-.07c0-.39.2-.59.38-.68.08-.05.18-.08.28-.08.13,0,.54.05.54.67,0,.14-.03.33-.1.59.18-.23.39-.46.63-.67.35-.31.72-.47,1.1-.47s.69.11.91.33c.11.1.17.24.17.4,0,.11-.04.28-.2.43-.13.11-.27.17-.42.17-.13,0-.26-.04-.38-.11-.04-.03-.09-.04-.15-.04,0,0-.08.01-.33.2-.82.6-1.51,1.81-2.05,3.62-.15.49-.24.82-.26,1-.03.19-.06.35-.08.46-.1.56-.31,1.29-.87,1.29Z" class="cls-4"></path><path d="M94.6,56.59l.31-1.66c.16-.85.27-1.45.33-1.8.06-.36.13-.75.2-1.18s.23-1.04.46-1.85c0-.02-.01-.04-.01-.06v-.07c0-.22.08-.37.25-.47.05-.03.1-.05.16-.05.19,0,.29.14.29.42,0,.16-.07.46-.2.88-.13.42-.23.82-.31,1.18.06-.1.14-.24.23-.39.09-.16.24-.39.44-.69.2-.3.46-.59.76-.87.31-.27.62-.41.94-.41s.56.09.73.26c.06.06.1.13.1.22s-.04.17-.12.24c-.08.07-.17.11-.25.11s-.17-.02-.25-.07c-.08-.05-.17-.07-.27-.07s-.26.08-.48.24c-.87.63-1.58,1.88-2.14,3.75-.15.5-.24.84-.27,1.03-.03.19-.06.34-.08.46-.14.73-.34,1.09-.63,1.09-.13,0-.2-.08-.2-.25Z" class="cls-4"></path><path d="M100.84,57c-.37,0-.65-.06-.85-.2-.19-.13-.35-.3-.47-.52-.21-.4-.32-.88-.32-1.43,0-.93.14-1.82.42-2.64.28-.83.66-1.53,1.13-2.08.5-.58,1.06-.88,1.66-.88.36,0,.66.16.87.46.19.27.28.6.28.97,0,.65-.17,1.2-.52,1.66-.33.44-.74.8-1.22,1.08-.42.24-.91.48-1.45.7l-.02.84c0,.92.33.92.46.92.21,0,.44-.06.68-.19.28-.15.48-.25.6-.32.16-.09.29-.13.4-.13.29,0,.48.2.48.5s-.27.58-.85.88c-.52.27-.94.39-1.3.39ZM102.22,50.41c-.09,0-.33.06-.76.64-.33.44-.62,1.04-.84,1.76.03-.01.06-.03.08-.04.19-.09.37-.18.54-.28.38-.21.68-.46.89-.74.2-.27.3-.62.3-1.04,0-.3-.11-.3-.21-.3Z" class="cls-4"></path><path d="M102.51,55.48c.16,0,.24.08.24.25,0,.19-.24.41-.71.66-.48.24-.87.37-1.19.37s-.56-.05-.71-.16c-.16-.1-.29-.25-.39-.43-.19-.36-.29-.8-.29-1.31,0-.91.14-1.76.41-2.56.27-.8.63-1.47,1.09-2,.45-.53.94-.79,1.47-.79.28,0,.5.12.66.35.16.23.24.51.24.83,0,.59-.16,1.1-.47,1.51-.31.41-.69.75-1.15,1.01-.45.26-.97.51-1.56.75l-.03,1c0,.78.24,1.17.71,1.17.25,0,.52-.07.8-.22.28-.15.48-.25.6-.32.12-.07.22-.1.29-.1ZM102.68,50.7c0-.36-.15-.54-.46-.54-.27,0-.59.24-.96.73-.37.49-.67,1.14-.91,1.94-.06.2-.09.34-.1.44.18-.1.37-.19.56-.29.19-.09.38-.19.56-.29.42-.23.74-.5.97-.81s.34-.71.34-1.19Z" class="cls-4"></path><path d="M104.39,57.06c-.13,0-.26-.03-.36-.09-.19-.11-.22-.27-.22-.35v-.08c.08-.21.14-.46.2-.76.06-.33.14-.63.23-.91.38-1.5.69-3.14.94-4.84.01-.08.02-.15.03-.22.01-.13.09-.27.26-.47l.04-.05.06-.02c.13-.05.22-.07.3-.07.11,0,.39.04.49.42v.03s0,.14,0,.14c-.01.46-.07.95-.16,1.47.27-.5.54-.89.79-1.18.48-.53,1.01-.8,1.58-.8.35,0,.65.14.87.43.13.17.22.35.27.56.41-.4.83-.7,1.26-.87.19-.08.4-.13.6-.13.24,0,.46.11.66.32.2.21.3.48.3.82,0,.29-.03.6-.09.92-.06.32-.14.64-.23.97-.09.32-.19.65-.3.98-.11.32-.25.77-.43,1.34-.17.56-.27.99-.3,1.28-.04.43-.07.54-.09.6-.03.09-.08.18-.16.28-.11.14-.26.21-.45.21-.26,0-.57-.16-.57-.93,0-.31.06-.65.17-1,.1-.33.19-.61.25-.83.07-.23.16-.51.27-.83.11-.31.25-.73.42-1.24.16-.5.27-1.04.32-1.61,0-.05,0-.09,0-.12-.02,0-.04,0-.07,0-.02,0-.13,0-.42.2-.23.15-.46.36-.7.63-.54.63-.95,1.43-1.23,2.36-.08.29-.16.55-.23.76-.07.21-.17.49-.29.85-.12.36-.21.67-.28.94-.1.4-.17.53-.22.6-.07.1-.2.21-.46.21-.34,0-.56-.21-.59-.57v-.03s0-.03,0-.03c.11-.77.28-1.47.5-2.07.22-.59.4-1.05.53-1.4.13-.34.26-.72.39-1.14.12-.41.18-.76.18-1.05,0-.18-.04-.23-.04-.23-.2,0-.78.25-1.89,2.5-.46.92-.74,1.54-.84,1.82-.1.3-.18.53-.23.69-.35,1.1-.68,1.57-1.08,1.57Z" class="cls-4"></path><path d="M104.06,56.62c.07-.22.14-.48.19-.8.06-.31.13-.61.22-.87.39-1.54.7-3.17.95-4.89.01-.08.02-.16.03-.23,0-.07.07-.18.2-.33.1-.04.17-.05.21-.05.13,0,.21.08.25.24v.11c-.02.66-.12,1.38-.31,2.16l-.35,1.46c.1-.21.21-.45.33-.72.5-1.15.96-1.97,1.39-2.44.43-.48.9-.72,1.4-.72.28,0,.5.11.68.34.18.22.27.49.27.79,0,.05,0,.08,0,.12,0,.03,0,.07,0,.11.5-.61,1.03-1.03,1.57-1.25.17-.07.34-.11.51-.11s.33.08.49.24.23.38.23.65-.03.56-.09.88c-.06.31-.13.63-.22.94-.09.32-.19.64-.3.96s-.25.77-.43,1.35-.28,1.02-.31,1.32c-.03.31-.06.49-.08.55s-.06.13-.12.21c-.06.08-.15.12-.25.12-.21,0-.32-.23-.32-.68,0-.29.05-.59.16-.92.1-.33.19-.61.25-.84.07-.23.16-.5.27-.82.11-.32.25-.73.42-1.25.17-.52.28-1.07.33-1.66,0-.19-.02-.3-.07-.34-.05-.03-.13-.05-.25-.05s-.31.08-.55.24c-.25.16-.5.38-.75.67-.57.67-.99,1.48-1.28,2.45-.08.29-.16.54-.23.75-.07.21-.17.49-.29.86-.12.36-.22.68-.29.96-.07.27-.13.45-.18.52-.05.07-.14.11-.25.11-.21,0-.33-.12-.35-.35.11-.76.27-1.43.49-2.02.22-.58.39-1.05.53-1.39s.27-.73.39-1.17c.13-.43.19-.81.19-1.12s-.1-.47-.29-.47c-.53,0-1.24.88-2.11,2.64-.47.94-.75,1.56-.85,1.86-.1.3-.18.53-.23.69-.3.94-.58,1.41-.85,1.41-.09,0-.17-.02-.23-.06s-.1-.09-.1-.14Z" class="cls-4"></path><path d="M113.98,57c-.27,0-.72-.13-.72-1.01,0-.13.03-.27.08-.43.04-.12.08-.29.13-.51.05-.23.12-.54.2-.94.09-.39.18-.8.27-1.22s.21-.93.34-1.53c.17-.75.19-.9.2-.93v-.12s0-.09-.09-.4v-.03s0-.03,0-.03c0-.17.06-.33.17-.47.12-.15.29-.23.47-.23.14,0,.35.06.49.34.09.18.14.37.14.58,0,.08,0,.28-.65,3.06-.34,1.49-.51,2.21-.58,2.56.12-.11.24-.16.36-.16.23,0,.47.14.47.53,0,.29-.19.53-.56.71-.32.16-.55.24-.72.24ZM115.42,48.59c-.16,0-.31-.07-.45-.21-.14-.14-.21-.32-.21-.52s.1-.41.29-.59c.19-.17.4-.25.62-.25.41,0,.65.24.65.65,0,.69-.38.86-.61.9-.09.02-.19.02-.3.02Z" class="cls-4"></path><path d="M114.72,50.44v-.14c0-.06-.03-.22-.1-.46,0-.11.04-.22.12-.31.08-.09.17-.14.28-.14s.2.07.28.21c.07.14.11.29.11.46s-.21,1.17-.64,3c-.43,1.84-.64,2.8-.64,2.9s.05.15.14.15c.06,0,.14-.06.25-.17s.2-.17.28-.17c.15,0,.22.09.22.28s-.14.35-.42.49c-.28.14-.48.21-.61.21-.32,0-.48-.25-.48-.76,0-.1.02-.22.06-.35.04-.13.09-.31.14-.54s.12-.54.2-.93c.09-.39.18-.8.27-1.22.09-.42.21-.93.34-1.53.13-.6.2-.93.2-.98ZM115.68,47.26c.27,0,.4.13.4.4,0,.39-.14.61-.41.66-.08.01-.16.02-.25.02s-.18-.05-.27-.14c-.09-.09-.14-.21-.14-.35s.07-.28.21-.4c.14-.13.29-.19.46-.19Z" class="cls-4"></path><path d="M120.12,57.2c-.66,0-.66-1.02-.66-1.36,0-.42.04-.86.11-1.3-.03.06-.06.11-.09.16-.11.19-.2.35-.27.47-.64,1.22-1.24,1.81-1.85,1.81-.66,0-1-.58-1-1.74,0-1.29.21-2.76.61-4.39l.21-.84c.15-.54.45-.65.67-.65.11,0,.38.04.48.42v.04s0,.04,0,.04c-.02.17-.06.34-.13.48-.05.1-.09.22-.11.35-.39,1.99-.59,3.36-.59,4.08v.66c-.01.13,0,.21,0,.27.17-.11.6-.56,1.5-2.33.13-.25.29-.57.48-.96.19-.38.34-.68.45-.89.11-.2.2-.39.29-.57.42-.91.77-1.32,1.15-1.32.29,0,.48.2.48.51,0,.21-.09.52-.29.96-.17.39-.31.79-.42,1.19-.32,1.14-.52,2.35-.6,3.6v.06c0,.11.03.14.03.14.05.06.09.11.12.14.1.1.11.25.11.35,0,.12-.05.3-.26.45-.15.11-.3.16-.43.16Z" class="cls-4"></path><path d="M120.12,56.95c-.28,0-.41-.37-.41-1.11,0-.48.05-.97.14-1.48.09-.5.19-.99.29-1.47-.17.3-.33.61-.48.92-.15.32-.28.57-.39.76-.11.19-.2.35-.27.49-.58,1.11-1.13,1.67-1.63,1.67s-.75-.5-.75-1.49c0-1.27.2-2.72.61-4.33l.21-.84c.09-.31.23-.46.44-.46.12,0,.2.08.24.24-.01.15-.05.28-.11.4-.06.12-.1.26-.13.41-.4,2.01-.6,3.39-.6,4.12v.65c-.01.37.05.56.17.56.35,0,.95-.83,1.8-2.5.13-.25.29-.57.48-.96.19-.39.34-.68.45-.88.11-.2.21-.4.29-.58.36-.78.67-1.18.92-1.18.16,0,.24.09.24.26s-.09.46-.27.86c-.18.4-.32.81-.44,1.22-.33,1.16-.53,2.38-.61,3.65v.07c0,.14.03.24.08.3.06.07.1.11.13.14.03.03.04.09.04.18s-.05.18-.16.25c-.11.08-.2.12-.29.12Z" class="cls-4"></path><path d="M122.86,57.06c-.13,0-.26-.03-.36-.09-.19-.11-.22-.27-.22-.35v-.08c.08-.21.14-.46.2-.76.06-.33.14-.63.23-.91.38-1.5.69-3.14.94-4.84.01-.08.02-.15.03-.22.01-.13.09-.27.26-.47l.04-.05.06-.02c.13-.05.22-.07.3-.07.11,0,.39.04.49.42v.03s0,.14,0,.14c-.01.46-.07.95-.16,1.47.27-.5.54-.89.79-1.18.48-.53,1.01-.8,1.58-.8.35,0,.65.14.87.43.13.17.22.35.27.56.41-.4.83-.7,1.26-.87.19-.08.4-.13.6-.13.24,0,.46.11.66.32.2.21.3.48.3.82,0,.29-.03.6-.09.92-.06.32-.14.64-.23.97-.09.32-.19.65-.3.98-.11.32-.25.77-.43,1.34-.17.56-.27.99-.3,1.28-.04.43-.07.54-.09.6-.03.09-.08.18-.16.28-.11.14-.26.21-.45.21-.26,0-.57-.16-.57-.93,0-.31.06-.65.17-1,.1-.33.19-.61.25-.83.07-.23.16-.51.27-.83.11-.31.25-.73.42-1.24.16-.5.27-1.04.32-1.61,0-.05,0-.09,0-.12-.02,0-.04,0-.07,0-.02,0-.13,0-.42.2-.23.15-.46.36-.7.63-.54.63-.95,1.43-1.23,2.36-.08.29-.16.55-.23.76-.07.21-.17.49-.29.85-.12.36-.21.67-.28.94-.1.4-.17.53-.22.6-.07.1-.2.21-.46.21-.34,0-.56-.21-.59-.57v-.03s0-.03,0-.03c.11-.77.28-1.47.5-2.07.22-.59.4-1.05.53-1.4.13-.34.26-.72.39-1.14.12-.41.18-.76.18-1.05,0-.18-.04-.23-.04-.23-.2,0-.78.25-1.89,2.5-.46.92-.74,1.54-.84,1.82-.1.3-.18.53-.23.69-.35,1.1-.68,1.57-1.08,1.57Z" class="cls-4"></path><path d="M122.53,56.62c.07-.22.14-.48.19-.8.06-.31.13-.61.22-.87.39-1.54.7-3.17.95-4.89.01-.08.02-.16.03-.23,0-.07.07-.18.2-.33.1-.04.17-.05.21-.05.13,0,.21.08.25.24v.11c-.02.66-.12,1.38-.31,2.16l-.35,1.46c.1-.21.21-.45.33-.72.5-1.15.96-1.97,1.39-2.44.43-.48.9-.72,1.4-.72.28,0,.5.11.68.34.18.22.27.49.27.79,0,.05,0,.08,0,.12,0,.03,0,.07,0,.11.5-.61,1.03-1.03,1.57-1.25.17-.07.34-.11.51-.11s.33.08.49.24.23.38.23.65-.03.56-.09.88c-.06.31-.13.63-.22.94-.09.32-.19.64-.3.96s-.25.77-.43,1.35-.28,1.02-.31,1.32c-.03.31-.06.49-.08.55s-.06.13-.12.21c-.06.08-.15.12-.25.12-.21,0-.32-.23-.32-.68,0-.29.05-.59.16-.92.1-.33.19-.61.25-.84.07-.23.16-.5.27-.82.11-.32.25-.73.42-1.25.17-.52.28-1.07.33-1.66,0-.19-.02-.3-.07-.34-.05-.03-.13-.05-.25-.05s-.31.08-.55.24c-.25.16-.5.38-.75.67-.57.67-.99,1.48-1.28,2.45-.08.29-.16.54-.23.75-.07.21-.17.49-.29.86-.12.36-.22.68-.29.96-.07.27-.13.45-.18.52-.05.07-.14.11-.25.11-.21,0-.33-.12-.35-.35.11-.76.27-1.43.49-2.02.22-.58.39-1.05.53-1.39s.27-.73.39-1.17c.13-.43.19-.81.19-1.12s-.1-.47-.29-.47c-.53,0-1.24.88-2.11,2.64-.47.94-.75,1.56-.85,1.86-.1.3-.18.53-.23.69-.3.94-.58,1.41-.85,1.41-.09,0-.17-.02-.23-.06s-.1-.09-.1-.14Z" class="cls-4"></path><path d="M143.84,57.02c-.31,0-.5-.33-.57-.44-.14-.25-.29-.71-.46-1.41-.17-.68-.57-2.2-1.18-4.51-.48-1.82-.89-3.39-1.21-4.7-.22,1.03-.52,2.47-.9,4.3-.53,2.59-1,4.7-1.39,6.28-.07.29-.28.46-.6.46-.4,0-.54-.26-.54-.5,0-.05,0-.11.48-2.09.31-1.29.78-3.47,1.4-6.5.94-4.58.98-4.69,1-4.75.08-.19.24-.29.44-.29.22,0,.35.1.43.18.09.1.15.25.19.47.15.74.62,2.63,1.4,5.6.59,2.27,1.07,4.05,1.42,5.32.21-1.17.51-2.73.9-4.75.51-2.65.91-4.77,1.18-6.3v-.02s0-.02,0-.02c.05-.16.15-.28.31-.38.14-.09.28-.13.41-.13.26,0,.37.17.38.31,0,.06,0,.15,0,.27v.05c-.58,2.77-1.09,5.44-1.54,7.95-.45,2.53-.71,4-.79,4.42-.12.65-.15.71-.17.76-.04.07-.09.15-.18.24-.11.11-.26.17-.44.17Z" class="cls-4"></path><path d="M140.1,43.26c.04-.09.11-.14.21-.14s.18.03.24.1.1.18.13.35c.15.76.62,2.63,1.4,5.62.78,2.99,1.35,5.11,1.71,6.36.21-1.21.58-3.14,1.09-5.8.51-2.66.91-4.76,1.18-6.31.03-.1.1-.18.2-.24s.2-.1.28-.1.13.03.14.09c0,.06,0,.14,0,.25-.58,2.78-1.09,5.43-1.54,7.96-.45,2.53-.71,4-.79,4.42-.07.41-.12.65-.15.69-.02.05-.07.1-.13.17-.07.07-.15.1-.27.1s-.23-.11-.36-.32c-.12-.22-.27-.67-.43-1.35-.17-.68-.56-2.18-1.18-4.52-.62-2.34-1.11-4.25-1.47-5.74-.21.97-.59,2.76-1.12,5.36-.54,2.6-1,4.69-1.38,6.27-.04.18-.16.27-.36.27s-.3-.08-.3-.25c0-.05.16-.73.47-2.03.32-1.3.78-3.47,1.4-6.51.62-3.04.95-4.61.99-4.7Z" class="cls-4"></path><path d="M150.43,57.2c-.66,0-.66-1.02-.66-1.36,0-.42.04-.86.11-1.3-.03.06-.06.11-.09.16-.11.19-.2.35-.27.47-.64,1.21-1.24,1.81-1.85,1.81-.66,0-1-.58-1-1.74,0-1.29.21-2.76.61-4.39l.21-.84c.15-.54.45-.65.67-.65.11,0,.38.04.48.42v.04s0,.04,0,.04c-.02.17-.06.34-.13.48-.05.1-.09.22-.11.34-.39,1.99-.59,3.36-.59,4.08v.66c-.01.13,0,.21,0,.27.17-.11.6-.56,1.5-2.33.13-.25.29-.57.48-.96.19-.39.34-.68.45-.89.11-.2.2-.39.29-.57.42-.91.77-1.32,1.15-1.32.29,0,.48.2.48.51,0,.21-.09.52-.29.96-.17.38-.31.78-.42,1.19-.32,1.14-.52,2.36-.6,3.6v.06c0,.11.03.14.03.14.05.06.09.11.12.14.09.1.11.25.11.35,0,.12-.05.3-.26.45-.15.11-.3.16-.43.16Z" class="cls-4"></path><path d="M150.43,56.95c-.28,0-.41-.37-.41-1.11,0-.48.05-.97.14-1.48.09-.5.19-.99.29-1.47-.17.3-.33.61-.48.92-.15.32-.28.57-.39.76s-.2.35-.27.49c-.58,1.11-1.13,1.67-1.63,1.67s-.75-.5-.75-1.49c0-1.27.2-2.72.61-4.33l.21-.84c.09-.31.23-.46.44-.46.12,0,.2.08.24.24-.01.15-.05.28-.11.4s-.1.26-.13.41c-.4,2.01-.6,3.39-.6,4.12v.65c-.01.37.05.56.17.56.35,0,.95-.83,1.8-2.5.13-.25.29-.57.48-.96s.34-.68.45-.88c.11-.2.21-.4.29-.58.36-.78.67-1.18.92-1.18.16,0,.24.09.24.26s-.09.46-.27.86-.32.81-.43,1.22c-.33,1.16-.53,2.38-.61,3.65v.07c0,.14.03.24.09.3.06.07.1.11.13.14.03.03.04.09.04.18s-.05.18-.16.25c-.11.08-.2.12-.29.12Z" class="cls-4"></path><path d="M154.08,56.92c-.37,0-.63-.07-.79-.22-.29-.25-.43-.65-.43-1.18,0-.25.03-.54.08-.88l.13-.79c.09-.4.17-.75.23-1.04.07-.29.13-.55.18-.77.05-.22.12-.51.2-.87.06-.24.11-.48.15-.71-.25,0-.47.03-.66.06h-.03s-.03,0-.03,0c-.47-.05-.5-.38-.5-.48,0-.14.05-.27.15-.4.11-.14.26-.22.44-.24h.02s.81.02.81.02c0-.04.01-.08.02-.13.02-.14.06-.34.11-.6.06-.27.13-.52.23-.75.17-.38.41-.46.59-.46.29,0,.47.2.47.5v.14c-.11.45-.2.88-.28,1.28h.7c.53,0,.69.06.79.12.15.1.23.24.23.41,0,.13-.05.44-.48.55-.07.02-.23.05-.66.05-.24,0-.51,0-.78-.03-.1.49-.28,1.27-.53,2.34-.36,1.52-.44,2.11-.44,2.35,0,.45.07.56.08.57,0,0,0,0,0,0,0,0,.04,0,.1,0,.08,0,.15-.02.2-.07.09-.07.17-.15.24-.24.09-.1.17-.2.25-.28.16-.16.33-.2.44-.2.32,0,.53.2.53.53,0,.16-.1.35-.34.63-.2.24-.39.41-.56.54-.2.15-.48.23-.84.23Z" class="cls-4"></path><path d="M154.12,50.22c-.39,0-.72.02-1,.07-.19-.02-.28-.1-.28-.24,0-.08.03-.17.1-.25.07-.09.16-.14.27-.15l1.01.03c.02-.1.04-.21.06-.34.02-.13.06-.33.11-.58.05-.26.12-.49.22-.7.09-.21.21-.31.36-.31s.22.08.22.25v.09c-.13.56-.24,1.09-.33,1.58h1c.35,0,.57.03.65.08s.12.12.12.2c0,.16-.1.26-.29.31-.1.03-.3.04-.6.04s-.63-.01-.98-.04c-.09.45-.28,1.3-.57,2.54-.3,1.24-.45,2.04-.45,2.4s.04.6.12.71c.06.07.16.11.3.11s.26-.04.36-.12.19-.17.27-.27.16-.19.24-.27c.08-.08.17-.12.26-.12.19,0,.28.09.28.28,0,.1-.09.25-.28.47-.19.22-.36.39-.52.51-.16.12-.39.18-.69.18s-.51-.05-.63-.16c-.24-.21-.35-.54-.35-1,0-.24.03-.51.08-.84l.13-.79c.09-.39.16-.73.23-1.02.07-.29.13-.55.18-.77.05-.22.12-.51.2-.87.08-.36.15-.69.21-1.02Z" class="cls-4"></path><path d="M157.43,57.09c-.2,0-.44-.13-.44-.5v-.02l.32-1.68c.16-.84.27-1.44.33-1.8.06-.36.13-.75.2-1.18.07-.42.22-1.03.45-1.81,0-.02,0-.04,0-.06v-.07c0-.39.2-.59.38-.68.08-.05.18-.08.28-.08.13,0,.54.05.54.67,0,.14-.03.33-.1.59.18-.23.39-.46.63-.67.35-.31.72-.47,1.1-.47s.69.11.91.33c.11.1.17.24.17.4,0,.11-.04.28-.21.43-.13.11-.27.17-.42.17-.13,0-.26-.04-.38-.11-.04-.03-.09-.04-.15-.04,0,0-.08.01-.33.2-.82.6-1.51,1.81-2.05,3.62-.15.49-.24.82-.27,1-.03.19-.06.35-.08.46-.1.56-.31,1.29-.87,1.29Z" class="cls-4"></path><path d="M157.23,56.59l.31-1.66c.16-.85.27-1.45.33-1.8.06-.36.13-.75.2-1.18.07-.43.23-1.04.46-1.85,0-.02-.01-.04-.01-.06v-.07c0-.22.08-.37.25-.47.05-.03.1-.05.16-.05.19,0,.29.14.29.42,0,.16-.07.46-.2.88-.13.42-.23.82-.31,1.18.06-.1.14-.24.23-.39s.24-.39.44-.69c.2-.3.46-.59.76-.87.31-.27.62-.41.94-.41s.56.09.73.26c.06.06.1.13.1.22s-.04.17-.12.24c-.08.07-.17.11-.25.11s-.17-.02-.25-.07c-.08-.05-.17-.07-.27-.07s-.26.08-.48.24c-.87.63-1.58,1.88-2.14,3.75-.15.5-.24.84-.27,1.03-.03.19-.06.34-.08.46-.14.73-.34,1.09-.63,1.09-.13,0-.2-.08-.2-.25Z" class="cls-4"></path><path d="M162.52,57c-.27,0-.72-.13-.72-1.01,0-.13.03-.28.08-.43.04-.12.08-.29.13-.51.05-.23.12-.54.2-.94.09-.39.48-2.16.61-2.76.17-.75.19-.9.2-.93v-.12s0-.09-.09-.4v-.03s0-.03,0-.03c0-.17.06-.33.17-.47.12-.15.29-.23.47-.23.14,0,.35.06.49.34.09.18.14.37.14.58,0,.08,0,.28-.65,3.06-.34,1.49-.51,2.21-.58,2.56.12-.11.24-.16.36-.16.23,0,.47.14.47.53,0,.29-.19.53-.56.71-.32.16-.55.24-.72.24ZM163.96,48.59c-.16,0-.31-.07-.45-.21-.14-.14-.21-.32-.21-.52s.1-.41.29-.59c.19-.17.4-.25.62-.25.41,0,.65.24.65.65,0,.69-.38.86-.61.9-.09.02-.19.02-.3.02Z" class="cls-4"></path><path d="M163.26,50.44v-.14c0-.06-.03-.22-.1-.46,0-.11.04-.22.12-.31s.17-.14.28-.14.2.07.28.21c.07.14.11.29.11.46s-.21,1.17-.64,3-.64,2.8-.64,2.9.05.15.14.15c.06,0,.14-.06.25-.17s.2-.17.28-.17c.15,0,.22.09.22.28s-.14.35-.42.49c-.28.14-.49.21-.61.21-.32,0-.48-.25-.48-.76,0-.1.02-.22.06-.35.04-.13.09-.31.14-.54.05-.23.12-.54.2-.93.09-.39.18-.8.27-1.22.09-.42.21-.93.34-1.53s.2-.93.2-.98ZM164.22,47.26c.27,0,.4.13.4.4,0,.39-.14.61-.41.66-.08.01-.16.02-.25.02s-.18-.05-.27-.14c-.09-.09-.14-.21-.14-.35s.07-.28.21-.4c.14-.13.29-.19.46-.19Z" class="cls-4"></path><path d="M166.39,56.92c-.37,0-.63-.07-.79-.22-.29-.25-.43-.65-.43-1.18,0-.25.03-.54.08-.88l.13-.79c.09-.4.17-.75.23-1.04.07-.29.13-.55.18-.77.05-.22.12-.51.2-.87.06-.24.11-.48.15-.71-.25,0-.47.03-.66.06h-.03s-.03,0-.03,0c-.47-.05-.5-.38-.5-.48,0-.14.05-.27.15-.4.11-.14.26-.22.44-.24h.02s.81.02.81.02c0-.04.01-.08.02-.13.02-.14.06-.34.11-.6.06-.27.13-.52.23-.75.17-.38.41-.46.59-.46.29,0,.47.2.47.5v.14c-.11.45-.2.88-.28,1.28h.7c.53,0,.69.06.79.12.15.1.23.24.23.41,0,.13-.05.44-.48.55-.07.02-.23.05-.66.05-.24,0-.51,0-.78-.03-.1.49-.28,1.27-.53,2.34-.36,1.52-.44,2.11-.44,2.35,0,.45.07.56.08.57,0,0,0,0,0,0,0,0,.04,0,.1,0,.08,0,.15-.02.2-.07.09-.07.17-.15.24-.24.09-.1.17-.2.25-.28.16-.16.33-.2.44-.2.32,0,.53.2.53.53,0,.16-.1.35-.34.63-.2.24-.39.41-.56.54-.2.15-.48.23-.84.23Z" class="cls-4"></path><path d="M166.44,50.22c-.39,0-.72.02-1,.07-.19-.02-.28-.1-.28-.24,0-.08.03-.17.1-.25.07-.09.16-.14.27-.15l1.01.03c.02-.1.04-.21.06-.34.02-.13.06-.33.11-.58.05-.26.12-.49.22-.7.09-.21.21-.31.36-.31s.22.08.22.25v.09c-.13.56-.24,1.09-.33,1.58h1c.35,0,.57.03.65.08s.12.12.12.2c0,.16-.1.26-.29.31-.1.03-.3.04-.6.04s-.63-.01-.98-.04c-.09.45-.28,1.3-.57,2.54-.3,1.24-.45,2.04-.45,2.4s.04.6.12.71c.06.07.16.11.3.11s.26-.04.36-.12.19-.17.27-.27.16-.19.24-.27c.08-.08.17-.12.26-.12.19,0,.28.09.28.28,0,.1-.09.25-.28.47-.19.22-.36.39-.52.51-.16.12-.39.18-.69.18s-.51-.05-.63-.16c-.24-.21-.35-.54-.35-1,0-.24.03-.51.08-.84l.13-.79c.09-.39.16-.73.23-1.02.07-.29.13-.55.18-.77.05-.22.12-.51.2-.87.08-.36.15-.69.21-1.02Z" class="cls-4"></path><path d="M169.9,57c-.27,0-.72-.13-.72-1.01,0-.13.03-.28.08-.43.04-.12.08-.29.13-.51.05-.23.12-.54.2-.94.09-.39.48-2.16.61-2.76.17-.75.19-.9.2-.93v-.12s0-.09-.09-.4v-.03s0-.03,0-.03c0-.17.06-.33.17-.47.12-.15.29-.23.47-.23.14,0,.35.06.49.34.09.18.14.37.14.58,0,.08,0,.28-.65,3.06-.34,1.49-.51,2.21-.58,2.56.12-.11.24-.16.36-.16.23,0,.47.14.47.53,0,.29-.19.53-.56.71-.32.16-.55.24-.72.24ZM171.34,48.59c-.16,0-.31-.07-.45-.21-.14-.14-.21-.32-.21-.52s.1-.41.29-.59c.19-.17.4-.25.62-.25.41,0,.65.24.65.65,0,.69-.38.86-.61.9-.09.02-.19.02-.3.02Z" class="cls-4"></path><path d="M170.64,50.44v-.14c0-.06-.03-.22-.1-.46,0-.11.04-.22.12-.31s.17-.14.28-.14.2.07.28.21c.07.14.11.29.11.46s-.21,1.17-.64,3c-.43,1.84-.64,2.8-.64,2.9s.05.15.14.15c.06,0,.14-.06.25-.17s.2-.17.28-.17c.15,0,.22.09.22.28s-.14.35-.42.49c-.28.14-.49.21-.61.21-.32,0-.48-.25-.48-.76,0-.1.02-.22.06-.35.04-.13.09-.31.14-.54.05-.23.12-.54.2-.93.09-.39.18-.8.27-1.22.09-.42.21-.93.34-1.53s.2-.93.2-.98ZM171.59,47.26c.27,0,.4.13.4.4,0,.39-.14.61-.41.66-.08.01-.16.02-.25.02s-.18-.05-.27-.14c-.09-.09-.14-.21-.14-.35s.07-.28.21-.4c.14-.13.29-.19.46-.19Z" class="cls-4"></path><path d="M173.82,56.99c-.6,0-1.05-.26-1.32-.74-.24-.44-.36-.93-.36-1.44,0-.87.15-1.72.44-2.54.29-.82.7-1.51,1.21-2.06.53-.58,1.14-.87,1.79-.87.7,0,1.53.38,1.53,2.19,0,1.04-.29,2.17-.86,3.36-.39.82-.88,1.42-1.45,1.79-.31.2-.64.3-.98.3ZM175.47,50.48c-.13,0-.29.06-.46.18-.38.25-.73.68-1.04,1.3-.47.94-.71,1.87-.71,2.76,0,.55.14.92.42,1.1.07.04.15.07.24.07.11,0,.37-.08.77-.65.34-.48.64-1.08.87-1.79.24-.71.35-1.32.35-1.82,0-.69-.05-.87-.07-.9-.06-.13-.11-.18-.12-.19,0,0-.06-.04-.25-.04Z" class="cls-4"></path><path d="M175.57,49.59c.86,0,1.28.65,1.28,1.94,0,1.01-.28,2.1-.84,3.26-.38.78-.83,1.34-1.36,1.69-.27.18-.55.27-.84.27-.51,0-.88-.2-1.1-.61-.22-.41-.33-.85-.33-1.32,0-.84.14-1.66.42-2.45.28-.79.67-1.45,1.16-1.98s1.02-.79,1.61-.79ZM173.75,51.84c-.49.98-.73,1.94-.73,2.87,0,.65.18,1.08.54,1.31.11.07.23.1.37.1.29,0,.61-.25.97-.75.36-.5.66-1.12.9-1.86s.37-1.37.37-1.9-.03-.86-.09-1c-.06-.14-.13-.24-.21-.29-.08-.05-.21-.08-.39-.08s-.38.07-.6.22c-.42.27-.8.74-1.12,1.39Z" class="cls-4"></path><path d="M181.6,56.95c-.21,0-.36-.05-.48-.14-.09-.08-.2-.23-.15-.52l.68-4.07c.08-.49.12-.86.12-1.11,0-.04,0-.43-.12-.43-.06.02-.45.23-1.65,2.67-.41.84-.7,1.48-.86,1.9-.17.44-.29.75-.38.93-.09.2-.18.35-.28.46-.16.18-.33.22-.45.22-.27,0-.37-.14-.4-.23-.03-.08-.04-.19-.04-.35,0-.07,0-.21.55-3.25.55-3.06.62-3.18.66-3.25.08-.14.15-.24.23-.29.09-.06.21-.08.38-.08.2,0,.36.08.47.24.1.14.15.26.15.39,0,.09-.01.18-.04.27-.03.13-.08.29-.15.47-.13.36-.25.82-.37,1.37.03-.06.06-.13.09-.19.26-.58.56-1.11.89-1.57.46-.66.9-.99,1.34-.99.54,0,1.18.3,1.18,1.75,0,.39-.06.88-.16,1.45-.11.56-.22,1.18-.35,1.84-.13.65-.2,1.19-.21,1.61v.02s-.08.37-.08.37c0,.14-.03.24-.09.32-.11.15-.31.17-.47.17Z" class="cls-4"></path><path d="M182.02,51.11c0-.45-.12-.67-.37-.67-.33,0-.95.94-1.87,2.81-.42.85-.71,1.49-.87,1.92-.17.43-.29.74-.37.91s-.16.31-.24.4c-.08.09-.17.14-.27.14s-.16-.02-.17-.07c-.02-.05-.03-.13-.03-.26s.18-1.19.55-3.21c.36-2.01.58-3.07.63-3.18s.11-.17.15-.2c.05-.03.13-.04.24-.04s.21.05.28.14c.07.09.1.17.1.24s0,.14-.03.21c-.03.12-.08.27-.14.46-.22.62-.43,1.5-.63,2.64l-.14.82c.1-.22.22-.48.35-.79.13-.31.33-.74.58-1.32.26-.57.55-1.08.86-1.53.41-.59.79-.88,1.14-.88.62,0,.93.5.93,1.5,0,.38-.05.85-.16,1.41s-.22,1.18-.35,1.84c-.13.67-.2,1.22-.21,1.65l-.08.37c0,.1-.01.17-.04.21-.03.04-.12.06-.27.06s-.25-.03-.32-.08c-.07-.05-.09-.15-.06-.29l.68-4.07c.08-.5.12-.89.12-1.15Z" class="cls-4"></path><path d="M190.4,57.23c-.1,0-.44-.04-.48-.5v-.04s0-.04,0-.04c.51-2.43.84-4.09.97-4.93.1-.67.18-1.21.24-1.63h-.17c-.22,0-.4-.02-.56-.05-.25-.06-.4-.23-.4-.46,0-.15.07-.3.2-.43.13-.12.28-.2.46-.21h.03s.03,0,.03,0c.12.02.23.02.33.02h.25l.02-.14c.13-1.07.32-2.23.57-3.45-1.67.47-2.13.77-2.26.92l-.03.03-.03.02c-.13.08-.25.12-.36.12-.3,0-.5-.2-.5-.5,0-.6.91-1.11,3.04-1.69.16-.04.3-.08.42-.11.07-.3.14-.57.21-.79v-.04s.03-.03.03-.03c.18-.26.4-.32.55-.32.3,0,.5.19.5.48,0,.1-.02.19-.07.28l-.02.09c2.08-.49,4.48-.75,7.14-.79h.04s.04,0,.04,0c.38.11.42.37.42.47,0,.14-.05.28-.16.4-.1.12-.22.19-.35.24h-.03s-.03.01-.03.01c-2.72.04-5.17.33-7.29.86-.12.6-.24,1.2-.36,1.8-.13.64-.23,1.29-.3,1.95v.07s.46-.05.46-.05c.71-.06,1.41-.1,2.1-.12.68-.02,1.14-.03,1.39-.04h.05s.05.02.05.02c.31.12.36.34.36.45,0,.16-.06.31-.18.43-.11.12-.25.19-.4.22h-.02s-.02,0-.02,0c-.36.02-.85.03-1.45.04-.59.01-1.23.04-1.9.09l-.59.07c-.22,1.6-.54,3.42-.97,5.42-.09.41-.19.87-.29,1.36v.03s-.02.03-.02.03c-.13.27-.34.42-.61.42Z" class="cls-4"></path><path d="M190.68,49.18c.14.02.26.03.36.03h.27c.07,0,.14,0,.21-.01l.04-.35c.14-1.18.36-2.46.65-3.83-1.57.42-2.49.78-2.77,1.1-.09.05-.17.08-.24.08-.17,0-.25-.08-.25-.25,0-.45.95-.93,2.86-1.45.23-.06.41-.11.56-.15.09-.36.17-.67.24-.92.1-.14.21-.21.35-.21.17,0,.25.08.25.24,0,.06-.02.13-.06.19l-.11.52c2.16-.54,4.65-.84,7.46-.88.16.05.24.12.24.24,0,.08-.03.16-.1.24-.07.08-.15.13-.24.16-2.81.04-5.31.34-7.5.9-.13.65-.26,1.3-.39,1.95-.13.65-.23,1.3-.31,1.97l-.04.37.77-.08c.71-.06,1.4-.1,2.08-.12.68-.02,1.14-.03,1.39-.04.14.05.2.13.2.22s-.04.18-.11.26-.16.13-.26.15c-.36.02-.84.03-1.44.04-.6.01-1.24.04-1.92.09l-.79.1c-.22,1.65-.55,3.51-.99,5.59-.09.41-.19.87-.29,1.36-.09.19-.22.28-.39.28-.14,0-.22-.09-.24-.28.52-2.45.84-4.1.97-4.95.13-.85.22-1.49.28-1.93-.08,0-.15.01-.22.01h-.23c-.2,0-.37-.02-.51-.05-.14-.03-.21-.1-.21-.22,0-.09.04-.17.13-.25.09-.08.19-.13.31-.14Z" class="cls-4"></path><path d="M197.73,56.99c-.6,0-1.05-.26-1.32-.74-.24-.44-.36-.93-.36-1.44,0-.87.15-1.72.44-2.54.29-.82.7-1.51,1.21-2.06.53-.58,1.14-.87,1.79-.87.7,0,1.53.38,1.53,2.19,0,1.04-.29,2.17-.86,3.36-.39.82-.88,1.42-1.45,1.79-.31.2-.64.3-.98.3ZM199.39,50.48c-.13,0-.29.06-.46.18-.38.25-.73.68-1.04,1.3-.47.94-.71,1.87-.71,2.76,0,.55.14.92.42,1.1.07.04.15.07.24.07.11,0,.37-.08.77-.65.34-.48.64-1.08.87-1.79.24-.71.35-1.32.35-1.82,0-.69-.05-.87-.07-.9-.06-.13-.11-.18-.12-.19,0,0-.06-.04-.25-.04Z" class="cls-4"></path><path d="M199.49,49.59c.86,0,1.28.65,1.28,1.94,0,1.01-.28,2.1-.84,3.26-.38.78-.83,1.34-1.36,1.69-.27.18-.55.27-.84.27-.51,0-.88-.2-1.1-.61-.22-.41-.33-.85-.33-1.32,0-.84.14-1.66.42-2.45.28-.79.67-1.45,1.16-1.98s1.02-.79,1.61-.79ZM197.67,51.84c-.49.98-.73,1.94-.73,2.87,0,.65.18,1.08.54,1.31.11.07.23.1.37.1.29,0,.61-.25.97-.75.36-.5.66-1.12.9-1.86s.37-1.37.37-1.9-.03-.86-.09-1c-.06-.14-.13-.24-.21-.29-.08-.05-.21-.08-.39-.08s-.38.07-.6.22c-.42.27-.8.74-1.12,1.39Z" class="cls-4"></path><path d="M201.94,57.09c-.2,0-.44-.13-.44-.5v-.02l.32-1.68c.16-.84.27-1.44.33-1.8.06-.36.13-.75.2-1.18.07-.42.22-1.03.45-1.81,0-.02,0-.04,0-.06v-.07c0-.39.2-.59.38-.68.08-.05.18-.08.28-.08.13,0,.54.05.54.67,0,.14-.03.33-.1.59.18-.23.39-.46.63-.67.35-.31.72-.47,1.1-.47s.69.11.91.33c.11.1.17.24.17.4,0,.11-.04.28-.21.43-.13.11-.27.17-.42.17-.13,0-.26-.04-.38-.11-.04-.03-.09-.04-.15-.04,0,0-.08.01-.33.2-.82.6-1.51,1.81-2.05,3.62-.15.49-.24.82-.27,1-.03.19-.06.35-.08.46-.1.56-.31,1.29-.87,1.29Z" class="cls-4"></path><path d="M201.74,56.59l.31-1.66c.16-.85.27-1.45.33-1.8.06-.36.13-.75.2-1.18.07-.43.23-1.04.46-1.85,0-.02-.01-.04-.01-.06v-.07c0-.22.08-.37.25-.47.05-.03.1-.05.16-.05.19,0,.29.14.29.42,0,.16-.07.46-.2.88-.13.42-.23.82-.31,1.18.06-.1.14-.24.23-.39s.24-.39.44-.69c.2-.3.46-.59.76-.87.31-.27.62-.41.94-.41s.56.09.73.26c.06.06.1.13.1.22s-.04.17-.12.24c-.08.07-.17.11-.25.11s-.17-.02-.25-.07c-.08-.05-.17-.07-.27-.07s-.26.08-.48.24c-.87.63-1.58,1.88-2.14,3.75-.15.5-.24.84-.27,1.03-.03.19-.06.34-.08.46-.14.73-.34,1.09-.63,1.09-.13,0-.2-.08-.2-.25Z" class="cls-4"></path><path d="M212.82,57.4c-.3,0-.5-.2-.5-.5,0-.2.09-.55.68-.69l.53-.12c.13-.03.26-.06.39-.08.18-.53.31-1.04.39-1.52.09-.53.15-.97.2-1.32.04-.33.09-.68.14-1.07-.28-.43-.73-1.65-1.52-6.14-.16-.92-.28-1.7-.37-2.34v-.02s0-.02,0-.02c0-.17.05-.33.15-.46.11-.15.27-.23.45-.23.16,0,.32.06.46.18l.02.02.02.03c.07.09.1.2.1.33,0,.09-.02.18-.06.25.05.36.1.75.16,1.15.34,2.54.74,4.48,1.17,5.8.2-.48.46-1.13.77-1.96.47-1.23.93-2.3,1.37-3.18.44-.89.97-1.7,1.56-2.42.11-.13.25-.2.43-.2.39,0,.53.26.53.48,0,.16-.06.31-.18.44-.73.78-1.49,2.17-2.26,4.13-.21.53-.49,1.26-.83,2.17-.34.9-.59,1.5-.76,1.84-.14.53-.29,1.23-.45,2.09-.13.7-.25,1.3-.37,1.78.13,0,.25-.01.37-.01.79,0,1.6.07,1.6.62,0,.12-.04.3-.23.45-.14.11-.3.17-.47.17h-.06c-.26-.08-.61-.12-1.04-.12s-.87.05-1.3.16c-.49.12-.68.16-.76.17-.07.06-.19.11-.36.11Z" class="cls-4"></path><path d="M213.08,57.03c-.03.08-.12.12-.25.12-.17,0-.25-.08-.25-.25,0-.22.16-.37.49-.45.18-.04.36-.08.53-.12s.34-.08.52-.11c.21-.59.36-1.16.45-1.69.09-.53.15-.98.2-1.33.05-.36.1-.74.16-1.16-.4-.52-.91-2.56-1.54-6.12-.16-.92-.28-1.69-.37-2.33,0-.12.03-.22.1-.31.07-.09.15-.13.26-.13s.21.04.31.12c.04.05.05.11.05.19s-.02.14-.07.2c.05.39.11.8.17,1.24.4,2.97.87,5.12,1.4,6.44.21-.46.55-1.31,1.02-2.54.47-1.23.93-2.28,1.36-3.15.44-.87.95-1.66,1.53-2.37.06-.07.14-.11.24-.11.19,0,.28.08.28.23,0,.1-.04.19-.12.28-.75.81-1.52,2.21-2.3,4.21-.21.54-.49,1.26-.83,2.17-.34.91-.59,1.52-.76,1.84-.14.54-.29,1.25-.46,2.13-.16.87-.31,1.57-.45,2.1.24-.03.47-.04.69-.04.9,0,1.35.12,1.35.37,0,.1-.05.19-.14.27s-.2.12-.31.12c-.29-.08-.65-.12-1.1-.12s-.9.06-1.36.17c-.46.11-.71.17-.76.17h-.04Z" class="cls-4"></path><path d="M219.74,56.99c-.6,0-1.05-.26-1.32-.74-.24-.44-.36-.93-.36-1.44,0-.87.15-1.72.44-2.54.29-.82.7-1.51,1.21-2.06.53-.58,1.14-.87,1.79-.87.7,0,1.53.38,1.53,2.19,0,1.04-.29,2.17-.86,3.36-.39.82-.88,1.42-1.45,1.79-.31.2-.64.3-.98.3ZM221.4,50.48c-.13,0-.29.06-.46.18-.38.25-.73.68-1.04,1.3-.47.94-.71,1.87-.71,2.76,0,.55.14.92.42,1.1.07.04.15.07.24.07.11,0,.37-.08.77-.65.34-.48.64-1.08.87-1.79.24-.71.35-1.32.35-1.82,0-.69-.05-.87-.07-.9-.06-.13-.11-.18-.12-.19,0,0-.06-.04-.25-.04Z" class="cls-4"></path><path d="M221.5,49.59c.86,0,1.28.65,1.28,1.94,0,1.01-.28,2.1-.84,3.26-.38.78-.83,1.34-1.36,1.69-.27.18-.55.27-.84.27-.51,0-.88-.2-1.1-.61-.22-.41-.33-.85-.33-1.32,0-.84.14-1.66.42-2.45.28-.79.67-1.45,1.16-1.98s1.02-.79,1.61-.79ZM219.68,51.84c-.49.98-.73,1.94-.73,2.87,0,.65.18,1.08.54,1.31.11.07.23.1.37.1.29,0,.61-.25.97-.75.36-.5.66-1.12.9-1.86s.37-1.37.37-1.9-.03-.86-.09-1c-.06-.14-.13-.24-.21-.29-.08-.05-.21-.08-.39-.08s-.38.07-.6.22c-.42.27-.8.74-1.12,1.39Z" class="cls-4"></path><path d="M227.26,57.2c-.66,0-.66-1.02-.66-1.36,0-.42.04-.86.11-1.3-.03.06-.06.11-.09.16-.11.19-.2.35-.27.47-.64,1.21-1.24,1.81-1.85,1.81-.66,0-1-.58-1-1.74,0-1.29.21-2.76.61-4.39l.21-.84c.15-.54.45-.65.67-.65.11,0,.38.04.48.42v.04s0,.04,0,.04c-.02.17-.06.34-.13.48-.05.1-.09.22-.11.34-.39,1.99-.59,3.36-.59,4.08v.66c-.01.13,0,.21,0,.27.17-.11.6-.56,1.5-2.33.13-.25.29-.57.48-.96.19-.39.34-.68.45-.89.11-.2.2-.39.29-.57.42-.91.77-1.32,1.15-1.32.29,0,.48.2.48.51,0,.21-.09.52-.29.96-.17.38-.31.78-.42,1.19-.32,1.14-.52,2.36-.6,3.6v.06c0,.11.03.14.03.14.05.06.09.11.12.14.09.1.11.25.11.35,0,.12-.05.3-.26.45-.15.11-.3.16-.43.16Z" class="cls-4"></path><path d="M227.26,56.95c-.28,0-.41-.37-.41-1.11,0-.48.05-.97.14-1.48.09-.5.19-.99.29-1.47-.17.3-.33.61-.48.92-.15.32-.28.57-.39.76s-.2.35-.27.49c-.58,1.11-1.13,1.67-1.63,1.67s-.75-.5-.75-1.49c0-1.27.2-2.72.61-4.33l.21-.84c.09-.31.23-.46.44-.46.12,0,.2.08.24.24-.01.15-.05.28-.11.4s-.1.26-.13.41c-.4,2.01-.6,3.39-.6,4.12v.65c-.01.37.05.56.17.56.35,0,.95-.83,1.8-2.5.13-.25.29-.57.48-.96s.34-.68.45-.88c.11-.2.21-.4.29-.58.36-.78.67-1.18.92-1.18.16,0,.24.09.24.26s-.09.46-.27.86-.32.81-.43,1.22c-.33,1.16-.53,2.38-.61,3.65v.07c0,.14.03.24.09.3.06.07.1.11.13.14.03.03.04.09.04.18s-.05.18-.16.25c-.11.08-.2.12-.29.12Z" class="cls-4"></path><path d="M229.87,57.09c-.2,0-.44-.13-.44-.5v-.02l.32-1.68c.16-.84.27-1.44.33-1.8.06-.36.13-.75.2-1.18.07-.42.22-1.03.45-1.81,0-.02,0-.04,0-.06v-.07c0-.39.2-.59.38-.68.08-.05.18-.08.28-.08.13,0,.54.05.54.67,0,.14-.03.33-.1.59.18-.23.39-.46.63-.67.35-.31.72-.47,1.1-.47s.69.11.91.33c.11.1.17.24.17.4,0,.11-.04.28-.21.43-.13.11-.27.17-.42.17-.13,0-.26-.04-.38-.11-.04-.03-.09-.04-.15-.04,0,0-.08.01-.33.2-.82.6-1.51,1.81-2.05,3.62-.15.49-.24.82-.27,1-.03.19-.06.35-.08.46-.1.56-.31,1.29-.87,1.29Z" class="cls-4"></path><path d="M229.67,56.59l.31-1.66c.16-.85.27-1.45.33-1.8.06-.36.13-.75.2-1.18.07-.43.23-1.04.46-1.85,0-.02-.01-.04-.01-.06v-.07c0-.22.08-.37.25-.47.05-.03.1-.05.16-.05.19,0,.29.14.29.42,0,.16-.07.46-.2.88-.13.42-.23.82-.31,1.18.06-.1.14-.24.23-.39s.24-.39.44-.69c.2-.3.46-.59.76-.87.31-.27.62-.41.94-.41s.56.09.73.26c.06.06.1.13.1.22s-.04.17-.12.24c-.08.07-.17.11-.25.11s-.17-.02-.25-.07c-.08-.05-.17-.07-.27-.07s-.26.08-.48.24c-.87.63-1.58,1.88-2.14,3.75-.15.5-.24.84-.27,1.03-.03.19-.06.34-.08.46-.14.73-.34,1.09-.63,1.09-.13,0-.2-.08-.2-.25Z" class="cls-4"></path><path d="M240.39,57.63c-.32,0-.51-.2-.51-.53,0-.05,0-.12,0-.2-.06-.01-.12-.02-.18-.03-.5-.08-1.07-.23-1.12-.63,0,0,0-.06,0-.14,0-.11.05-.22.14-.33.1-.12.21-.18.34-.18.07,0,.14,0,.21.03.09.03.21.08.37.16.07.03.19.07.39.08.96-4.7,1.91-8.5,2.82-11.32-.36.15-.7.32-1.01.52h-.02s-.02.02-.02.02c-.09.03-.17.05-.24.05-.29,0-.48-.2-.48-.5,0-.22.1-.4.28-.52.67-.42,1.35-.73,2.01-.92.12-.14.26-.21.41-.21.1,0,.18.02.24.05.42-.09.9-.13,1.41-.13.58,0,1.12.13,1.62.37,1.4.7,2.12,2.24,2.12,4.59,0,2.65-.68,4.82-2.01,6.45-.93,1.13-2.18,1.92-3.7,2.35-.74.2-1.56.31-2.44.32-.05.26-.15.43-.29.53-.09.07-.21.1-.34.1ZM244.1,44.17c-.76,2.41-1.5,5.23-2.19,8.4-.23,1.03-.46,2.15-.71,3.34,1.43-.04,2.66-.4,3.65-1.05,1.06-.7,1.86-1.66,2.37-2.83.52-1.19.79-2.53.79-3.98,0-2.67-.96-3.97-2.93-3.97-.36,0-.69.03-.99.1Z" class="cls-4"></path><path d="M240.13,57.11c0-.09,0-.22.03-.39-.13-.03-.27-.05-.4-.07-.59-.1-.89-.23-.91-.41,0-.02,0-.06,0-.11s.03-.11.08-.17.1-.09.15-.09.1,0,.15.02c.06.02.18.07.34.15.16.07.39.11.69.11,1.03-5.08,2.04-9.08,3.01-11.98-.57.19-1.08.43-1.54.72-.06.02-.11.03-.15.03-.16,0-.24-.08-.24-.25,0-.14.06-.24.17-.32.68-.42,1.35-.72,2.02-.91.09-.12.18-.18.27-.18s.16.02.19.07c.43-.1.92-.15,1.46-.15s1.05.12,1.51.35c1.32.66,1.98,2.11,1.98,4.37,0,2.61-.65,4.7-1.95,6.29-.9,1.1-2.09,1.85-3.58,2.27-.75.21-1.59.31-2.5.31h-.09c-.03.3-.1.5-.22.58-.05.04-.12.05-.2.05-.18,0-.27-.09-.27-.28ZM248.27,48.04c0-2.81-1.06-4.21-3.17-4.21-.43,0-.83.05-1.18.14-.78,2.46-1.53,5.31-2.24,8.55-.24,1.12-.5,2.33-.77,3.64,1.62,0,2.99-.37,4.09-1.1,1.11-.73,1.93-1.71,2.46-2.94.54-1.23.81-2.59.81-4.08Z" class="cls-4"></path><path d="M251,56.99c-.6,0-1.05-.26-1.32-.74-.24-.44-.36-.93-.36-1.44,0-.87.15-1.72.44-2.54.29-.82.7-1.51,1.21-2.06.53-.58,1.14-.87,1.79-.87.7,0,1.53.38,1.53,2.19,0,1.04-.29,2.17-.86,3.36-.39.82-.88,1.42-1.45,1.79-.31.2-.64.3-.98.3ZM252.65,50.48c-.13,0-.29.06-.46.18-.38.25-.73.68-1.04,1.3-.47.94-.71,1.87-.71,2.76,0,.55.14.92.42,1.1.07.04.15.07.24.07.11,0,.37-.08.77-.65.34-.48.64-1.08.87-1.79.24-.71.35-1.32.35-1.82,0-.69-.05-.87-.07-.9-.06-.13-.11-.18-.12-.19,0,0-.06-.04-.25-.04Z" class="cls-4"></path><path d="M252.75,49.59c.86,0,1.28.65,1.28,1.94,0,1.01-.28,2.1-.84,3.26-.38.78-.83,1.34-1.36,1.69-.27.18-.55.27-.84.27-.51,0-.88-.2-1.1-.61-.22-.41-.33-.85-.33-1.32,0-.84.14-1.66.42-2.45.28-.79.67-1.45,1.16-1.98s1.02-.79,1.61-.79ZM250.93,51.84c-.49.98-.73,1.94-.73,2.87,0,.65.18,1.08.54,1.31.11.07.23.1.37.1.29,0,.61-.25.97-.75.36-.5.66-1.12.9-1.86s.37-1.37.37-1.9-.03-.86-.09-1c-.06-.14-.13-.24-.21-.29-.08-.05-.21-.08-.39-.08s-.38.07-.6.22c-.42.27-.8.74-1.12,1.39Z" class="cls-4"></path><path d="M255.38,62.58c-.51,0-.94-.18-1.29-.52-.35-.35-.52-.81-.52-1.38,0-.8.41-1.55,1.21-2.25.31-.27.73-.59,1.24-.97.47-.34.85-.64,1.13-.87.04-.17.08-.36.12-.56-.47.65-.87.95-1.26.95-.42,0-.76-.16-1.02-.48-.25-.3-.37-.7-.37-1.19,0-.82.16-1.69.46-2.6.31-.91.74-1.71,1.28-2.37.57-.7,1.22-1.05,1.92-1.05.32,0,.61.07.87.2.05-.01.11-.02.16-.02.29,0,.47.19.47.47,0,.18-.03.36-.1.53-.05.14-.11.32-.17.54-.06.23-.15.58-.26,1.04-.11.47-.22.95-.33,1.43-.11.48-.21.96-.32,1.44-.05.24-.1.47-.15.71.15-.14.29-.25.4-.34.16-.13.31-.19.45-.19.31,0,.5.19.5.48,0,.25-.11.39-.21.47-.54.41-1.01.76-1.4,1.04l-.38,1.95c-.28,1.44-.64,2.39-1.1,2.9-.38.43-.84.64-1.35.64ZM256.89,58.08c-.17.13-.33.26-.49.38-.32.25-.62.49-.87.73-.53.51-.79.98-.79,1.4,0,.39.07.65.21.73.03.02.11.05.31.05.31,0,.57-.17.8-.53.26-.41.51-1.19.76-2.33l.08-.43ZM258.27,50.33c-.33,0-.69.24-1.07.72-.41.52-.76,1.16-1.04,1.93-.28.76-.42,1.47-.42,2.09,0,.34.05.74.27.74.1,0,.38-.07.85-.77.38-.56.69-1.24.92-2.03.23-.8.42-1.44.54-1.89.09-.32.16-.57.2-.75-.07-.03-.16-.05-.25-.05Z" class="cls-4"></path><path d="M259.31,49.71c.15,0,.22.08.22.23s-.03.3-.08.45-.11.33-.17.56-.15.58-.26,1.05-.22.95-.33,1.43c-.11.48-.21.96-.32,1.44-.1.48-.2.94-.3,1.39.17-.12.34-.25.51-.41s.31-.28.43-.37.21-.14.3-.14c.17,0,.26.08.26.23,0,.12-.04.22-.12.28-.58.44-1.06.8-1.46,1.09l-.4,2.05c-.27,1.38-.62,2.31-1.04,2.79-.34.37-.72.56-1.17.56s-.81-.15-1.11-.45-.45-.7-.45-1.21c0-.73.37-1.41,1.12-2.07.3-.26.71-.58,1.23-.96.51-.38.92-.69,1.21-.93.04-.2.09-.43.15-.67.06-.24.11-.46.15-.66.05-.2.09-.4.14-.59.05-.19.09-.38.13-.56s.07-.33.11-.46c-.25.8-.51,1.41-.77,1.82-.49.75-.91,1.13-1.25,1.13s-.62-.13-.83-.39c-.21-.26-.32-.6-.32-1.03,0-.79.15-1.63.45-2.52.3-.89.71-1.65,1.24-2.29.53-.64,1.1-.96,1.73-.96.32,0,.6.07.85.22.05-.03.12-.04.18-.04ZM257.26,57.47c-.34.28-.68.55-1.01.8s-.63.5-.89.75c-.58.56-.87,1.08-.87,1.58s.11.81.33.94c.1.06.24.09.44.09.4,0,.74-.22,1.01-.65.27-.43.54-1.24.79-2.41l.21-1.1ZM255.93,52.89c-.29.79-.43,1.52-.43,2.18s.17.99.52.99c.3,0,.65-.29,1.05-.88.4-.58.71-1.28.95-2.1.24-.81.42-1.45.54-1.9.12-.45.21-.76.25-.92-.15-.12-.32-.18-.54-.18-.41,0-.83.27-1.26.81-.43.54-.79,1.21-1.08,2Z" class="cls-4"></path><path d="M260.99,57.54c-.18,0-.3-.08-.36-.15-.09-.09-.14-.2-.14-.32-.17-.12-.26-.31-.26-.54,0-.27.12-.51.34-.7.21-.17.42-.26.64-.26.29,0,.46.14.55.25.12.15.17.33.17.55s-.07.44-.23.7c-.22.38-.51.46-.72.46ZM261.21,54.64c-.1,0-.44-.04-.48-.5v-.04s0-.04,0-.04c.84-3.56,1.43-6.82,1.76-9.69.06-.47.13-.94.22-1.4.08-.44.14-.89.16-1.35v-.03s.01-.03.01-.03c.04-.14.12-.25.23-.35.12-.1.26-.16.4-.16.11,0,.38.04.48.42v.03s0,.04,0,.04c-.01.38-.07.89-.18,1.51-.1.61-.21,1.39-.32,2.33-.11.95-.32,2.25-.63,3.88-.31,1.63-.66,3.27-1.04,4.89v.02s-.02.02-.02.02c-.13.27-.34.42-.61.42Z" class="cls-4"></path><path d="M260.76,56.94c-.19-.07-.28-.2-.28-.4s.08-.37.25-.51c.17-.14.33-.2.48-.2s.28.05.36.16c.08.1.12.24.12.4s-.06.35-.19.58c-.13.23-.3.34-.51.34-.08,0-.14-.02-.18-.07-.05-.05-.07-.1-.07-.16s0-.1.02-.13ZM263.52,41.3c.12,0,.2.08.24.24-.01.37-.07.87-.18,1.48s-.21,1.4-.32,2.34c-.11.94-.32,2.23-.63,3.86-.31,1.63-.65,3.26-1.04,4.88-.09.19-.22.28-.39.28-.14,0-.22-.09-.24-.28.84-3.59,1.43-6.83,1.77-9.71.06-.47.13-.93.22-1.38.09-.45.14-.91.16-1.38.03-.09.08-.17.16-.23.08-.07.16-.1.24-.1Z" class="cls-4"></path><path d="M262.67,19.84l-.36-.34,2.72-7.63-1.93-.76c-.56-.22-1.18-.42-1.86-.59-.59-.16-1.29-.3-2.09-.44-.71-.13-1.44-.22-2.16-.3-.73-.07-1.44-.11-2.13-.11h-.3c-3.14,0-5.57.5-7.43,1.52l-1.04.57-.13-1.12c-.15-1.23-.64-2.33-1.45-3.27-1.11-1.29-2.65-2.02-4.47-2.11-.12,0-.25-.01-.38-.01-1.61,0-3.1.55-4.31,1.59-1,.87-1.65,1.94-1.94,3.18l-.27,1.13-.97-.71c-.37-.27-.78-.53-1.23-.75-1.33-.68-2.86-1.07-4.55-1.14l-31.3-1.18-2.2-.07-.1,2.68-1.21-.89c-.51-.38-1.07-.71-1.67-.97-.7-.32-1.47-.56-2.27-.71-.77-.15-1.58-.24-2.41-.25l-13.96-.26-.06,2.83-1.23-.91c-.56-.41-1.18-.76-1.83-1.04-.71-.3-1.48-.52-2.29-.67-.75-.13-1.55-.2-2.37-.2l-10.5,1.38h-1.31c-.82-1.31-20.29-.79-36.53.49l-1.11.09.67-2.37-2.04-.64c-.83-.26-1.72-.48-2.66-.65-.93-.17-1.94-.31-3.02-.42-1.06-.11-2.11-.18-3.13-.21-.32-.01-.66-.02-1.03-.02-.3,0-.59,0-.89.01-.33,0-.69.02-1.11.05-4.82.3-8.37,1.4-10.85,3.37-2.65,2.1-3.92,5.19-3.69,8.92.14,2.27.92,4.21,2.33,5.76l.28.31-2.63,10.25-.52,2.03,1.99.62c2.16.68,4.37,1.11,6.56,1.31,1.23.11,2.5.17,3.79.17.45,0,.86,0,1.26-.02.69-.02,1.25-.05,1.76-.08,4.86-.3,8.43-1.41,10.92-3.4.43-.35.83-.71,1.17-1.09l.2-.22.53-.05c2.33-.21,23.41-2.03,43.91-2.03,1.5,0,4.15.03,4.15.03v-6.45l1.31.12c.42.06.84.09,1.26.72h.03c1.52-.64,2.95-1.03,4.27-1.79.28-.16.55-.34.82-.54l1.28-.96-.18,8.88,10.68.21,2.2.04.13-6.45.89.15c.43.07.87.11,1.32.12h.15c1.45,0,2.83-.35,4.12-1.06.27-.15.53-.32.79-.5l1.28-.9-.23,6.63-.08,2.2,19.53.68,11.22.52.53.03,12.76.59-.14-2.44c-.12-2.07-.49-4-1.09-5.76-.32-.94-.73-1.84-1.2-2.68l-.25-.48.33-.41.4-.62.64.36c.57.32,1.28.49,2.1.49,1.28,0,2.43-.27,3.51-.83.58-.3,1.13-.68,1.73-1.17l1.07-.9.2,1.38c.16,1.09.54,2.08,1.16,2.96l.22.32-2.87,8.69,1.95.76c1.53.59,3.1,1.02,4.67,1.27,1.53.24,4.87-.47,4.87-.47h.33c3.38,0,5.92-.63,7.79-1.92,2.08-1.44,3.19-3.62,3.2-6.28.01-1.77-.48-3.3-1.48-4.55-.16-.2-.34-.4-.55-.59Z" class="cls-2" id="Shadow"></path><path d="M262.76,20.31l-.37-.35,2.79-7.85-1.99-.78c-.58-.23-1.22-.43-1.91-.61-.61-.16-1.33-.31-2.15-.45-.73-.13-1.48-.23-2.22-.31-.75-.07-1.48-.11-2.19-.12h-.17c-3.14,0-5.57.53-7.43,1.62l-1.04.61-.13-1.19c-.15-1.3-.64-2.47-1.45-3.47-1.11-1.37-2.65-2.14-4.47-2.24-.12,0-.25-.01-.38-.01-1.61,0-3.1.59-4.31,1.69-1,.92-1.65,2.06-1.94,3.38l-.27,1.2-.97-.76c-.37-.29-.78-.56-1.23-.8-1.33-.73-2.86-1.13-4.55-1.21l-31.3-1.25-2.2-.07-.1,2.84-1.21-.95c-.51-.4-1.07-.75-1.67-1.03-.7-.34-1.47-.59-2.27-.76-.77-.16-1.58-.25-2.41-.27l-13.96-.28-.06,3-1.23-.97c-.56-.44-1.18-.81-1.83-1.11-.71-.32-1.48-.55-2.29-.71-.75-.14-1.55-.21-2.37-.21l-10.5.03h-1.31c-.82.03-20.29.55-36.53,1.83l-1.11.09.67-2.37-2.04-.64c-.83-.26-1.72-.48-2.66-.65-.93-.17-1.94-.31-3.02-.42-1.06-.11-2.11-.18-3.13-.21-.32-.01-.66-.02-1.03-.02-.3,0-.59,0-.89.01-.33,0-.69.02-1.11.05-4.82.3-8.37,1.4-10.85,3.37-2.65,2.1-3.92,5.19-3.69,8.92.14,2.27.92,4.21,2.33,5.76l.28.31-2.63,10.25-.52,2.03,1.99.62c2.16.68,4.37,1.11,6.56,1.31,1.23.11,2.5.17,3.79.17.45,0,.86,0,1.26-.02.69-.02,1.25-.05,1.76-.08,4.86-.3,8.43-1.41,10.92-3.4.43-.35.83-.71,1.17-1.09l.2-.22.53-.05c2.33-.21,23.41-2.03,43.91-2.03,1.5,0,3.04.01,4.59.03l-.02-6.45.89.12c.42.06.84.09,1.26.09h.03c1.52,0,2.95-.39,4.27-1.16.28-.16.55-.34.82-.54l1.28-.96-.18,8.88,10.68.21,2.2.04.13-6.45.89.15c.43.07.87.11,1.32.12h.15c1.45,0,2.83-.35,4.12-1.06.27-.15.53-.32.79-.5l1.28-.9-.23,6.63-.08,2.2,19.53.68,11.22.52.53.03,12.76.59-.14-2.44c-.12-2.07-.49-4-1.09-5.76-.32-.94-.73-1.84-1.2-2.68l-.25-.48.33-.41.4-.62.64.36c.57.32,1.28.49,2.1.49,1.28,0,2.43-.27,3.51-.83.58-.3,1.13-.68,1.73-1.17l1.07-.9.2,1.38c.16,1.09.54,2.08,1.16,2.96l.22.32-2.87,8.69,1.95.76c1.53.59,3.1,1.02,4.67,1.27,1.53.24,3.17.37,4.87.38h.17c3.47,0,6.09-.64,8.01-1.97,2.14-1.48,3.28-3.72,3.29-6.46.01-1.82-.5-3.39-1.52-4.68-.17-.21-.35-.41-.56-.61Z" class="cls-5" id="Block_Colour"></path><g id="Outer_Colour"><path d="M263.3,19.75l1.91-5.36.97-2.72-2.69-1.05c-.61-.24-1.28-.45-2-.63-.66-.17-1.41-.33-2.21-.46-.77-.13-1.53-.24-2.28-.31-.78-.08-1.55-.12-2.26-.12h-.18c-3.27,0-5.84.56-7.82,1.72-.17-1.46-.71-2.76-1.62-3.87-1.25-1.55-2.99-2.42-5.03-2.53-.14,0-.28-.01-.42-.01-1.81,0-3.48.65-4.84,1.9-1.11,1.03-1.85,2.32-2.17,3.78-.41-.32-.86-.61-1.33-.87-1.43-.78-3.08-1.22-4.9-1.3l-31.31-1.25-2.98-.1-.07,2.09c-.56-.44-1.16-.81-1.82-1.12-.76-.36-1.58-.64-2.44-.82-.82-.17-1.67-.27-2.55-.29l-14.74-.29-.04,2.22c-.61-.48-1.28-.88-2-1.2-.77-.34-1.6-.6-2.46-.76-.81-.15-1.65-.23-2.51-.23l-10.5.03h-1.33c-.2.01-20.1.53-36.57,1.83l.57-2.02-2.76-.87c-.86-.27-1.78-.49-2.75-.67-.94-.17-1.98-.32-3.08-.43-1.09-.11-2.16-.18-3.18-.21-.35-.01-.71-.02-1.06-.02-.31,0-.61,0-.9.01-.42,0-.83.03-1.14.05-4.98.31-8.67,1.47-11.28,3.54-2.85,2.27-4.23,5.58-3.98,9.57.15,2.46,1,4.55,2.54,6.24l-2.52,9.84-.7,2.74,2.7.85c2.21.69,4.48,1.14,6.72,1.34,1.24.11,2.54.17,3.86.17.42,0,.85,0,1.28-.02.65-.02,1.24-.04,1.78-.08,5.02-.31,8.73-1.48,11.35-3.57.46-.37.88-.76,1.26-1.17l.2-.02c.22-.02,22.47-2.03,43.87-2.03,1.56,0,3.1.01,4.58.03h.79s0-2.98,0-2.98v-3.36c.44.06.9.1,1.36.1h.03c1.65,0,3.22-.43,4.66-1.27.31-.18.61-.38.89-.59l-.16,8.06,2.98.06,8.48.17,2.98.06.06-2.98.07-3.35c.46.08.94.12,1.42.13h.18c1.58,0,3.09-.39,4.5-1.16.3-.17.59-.35.87-.54l-.17,5.07-.1,2.98,20.3.71,11.21.52.53.03,13.62.63-.19-3.3c-.12-2.14-.51-4.15-1.14-5.97-.34-.98-.76-1.92-1.26-2.81.02-.03.04-.06.06-.09.58.33,1.39.59,2.48.59,1.41,0,2.67-.3,3.87-.92.63-.32,1.23-.73,1.87-1.27.18,1.21.61,2.31,1.29,3.29l-2.98,9.03,2.64,1.02c1.57.61,3.2,1.05,4.83,1.31,1.58.25,3.26.38,4.99.39h.17c3.64,0,6.4-.69,8.45-2.11,2.36-1.63,3.61-4.09,3.63-7.1.01-2-.56-3.74-1.69-5.17-.19-.24-.4-.47-.64-.69ZM110.67,32.14c-2.1,1.68-5.33,2.65-9.68,2.92-.57.04-1.13.06-1.68.07-1.66.04-3.26,0-4.8-.14-2.05-.18-4.09-.59-6.1-1.22l2.38-9.3c.92,1.26,2.04,2.25,3.36,2.97,1.24.68,2.43,1.01,3.55.98.06,0,.12,0,.18,0,.59-.04,1.06-.21,1.43-.53s.54-.69.51-1.14c-.03-.52-.33-.96-.9-1.32-.57-.35-1.43-.72-2.6-1.08-2.88-.89-4.88-1.92-6-3.09-1.11-1.19-1.73-2.68-1.84-4.49-.19-3.04.77-5.39,2.87-7.06,2.1-1.67,5.3-2.63,9.61-2.9.34-.02.69-.04,1.04-.04.59-.02,1.19-.02,1.8,0,.96.03,1.95.1,2.97.2,1.02.1,1.97.24,2.84.4.87.16,1.67.36,2.41.59l-2.47,8.78c-1.02-1.2-2.13-2.12-3.33-2.74-1.12-.58-2.27-.86-3.45-.83-.08,0-.16,0-.24.01-.75.05-1.28.23-1.6.56-.32.32-.46.72-.43,1.17.03.43.38.82,1.05,1.17.67.35,1.71.74,3.09,1.17,3.62,1.08,5.99,2.23,7.1,3.45,1.09,1.2,1.69,2.73,1.81,4.59.18,2.89-.78,5.18-2.88,6.86ZM137.93,28.8l-9.04.56c-.48-4.47-2.07-6.71-4.76-6.71h-.13l.43,6.99-8.46.53-.16-2.57-.33-5.29-.7-11.28,8.46-.53.4,6.4c.68-.09,1.29-.3,1.82-.63.53-.32.97-.77,1.31-1.33s.6-1.24.75-2.02c.16-.79.21-1.68.14-2.68l8.63-.54c.14,2.33-.04,4.27-.56,5.81-.51,1.55-1.38,2.87-2.63,3.95,1.33.9,2.41,2.11,3.24,3.63.72,1.32,1.23,2.92,1.54,4.8.05.29.09.59.13.9h-.1ZM140.09,28.67h-.11s-.04-1.31-.04-1.31l-.5-17.86,8.48-.24.54,19.17-8.37.24ZM170.11,18.84c-.58,1.01-1.36,1.79-2.33,2.36-.99.57-2.05.86-3.18.86h-.02c-.75,0-1.47-.12-2.14-.37-.69-.27-1.43-.7-2.23-1.29l.03,7.9-8.48.03-.06-19.18,11.76-.04h.04c.68,0,1.33.06,1.96.18.64.12,1.23.31,1.79.55.56.25,1.07.57,1.52.95.46.38.85.82,1.18,1.33.67,1.04,1.01,2.19,1.02,3.45,0,1.18-.28,2.27-.86,3.26ZM191.61,19.25c-.61.99-1.4,1.76-2.38,2.3-.96.53-1.98.79-3.06.79-.04,0-.09,0-.13,0-.76-.01-1.48-.15-2.15-.42-.68-.28-1.42-.73-2.2-1.34l-.15,7.9-8.48-.17.38-19.17,11.76.23c.69.01,1.36.09,1.99.22.63.13,1.23.33,1.78.6.55.26,1.05.59,1.5.98.45.39.83.84,1.15,1.36.65,1.05.96,2.21.94,3.48-.02,1.18-.33,2.26-.93,3.24ZM210.75,14.99l-7.44-.26-.08,2.37,5.18.18-.17,4.81-5.17-.18-.08,2.36,7.43.26-.17,4.81-15.91-.56.67-19.16,15.91.55-.17,4.81ZM224.96,30.01c-.06-2.54-.35-4.36-.86-5.49-.52-1.13-1.35-1.72-2.49-1.77h-.05s-.33,7.09-.33,7.09l-8.47-.39.89-19.15,12.64.59c1.36.06,2.57.38,3.61.95,1.04.56,1.81,1.3,2.3,2.21.5.9.72,1.86.67,2.9-.04.89-.26,1.68-.67,2.38-.41.7-.98,1.29-1.71,1.76.99,1.23,1.76,2.62,2.3,4.19.54,1.56.87,3.28.98,5.16l-8.8-.41ZM243.8,12.14c-.09,1.69-.83,3.2-2.21,4.54-1.37,1.34-3.03,2.12-4.96,2.33l-.23-.18c.28-.14.54-.31.78-.53.24-.21.46-.46.64-.73.18-.27.34-.56.47-.87,0,0,0,0,0-.01.21-.49-.03-1.06-.51-1.3-1.66-.82-2.45-2.11-2.36-3.86.07-1.24.53-2.26,1.4-3.06.81-.74,1.75-1.11,2.82-1.11.09,0,.17,0,.26,0,1.2.07,2.17.54,2.89,1.44.73.9,1.06,2,.99,3.32ZM260.3,30.26c-1.53,1.06-3.78,1.58-6.76,1.58h-.16c-1.59,0-3.1-.13-4.53-.35-1.43-.23-2.84-.61-4.22-1.14l2.11-6.4c.58.92,1.32,1.67,2.21,2.24.88.57,1.74.85,2.57.86h.01c.4,0,.74-.1,1.01-.3.27-.2.41-.46.41-.77,0-.37-.19-.69-.57-.97-.38-.28-.97-.57-1.77-.89-1.97-.76-3.32-1.57-4.06-2.45-.72-.88-1.08-1.96-1.07-3.23.01-2.14.79-3.74,2.34-4.8,1.52-1.05,3.76-1.58,6.72-1.58.05,0,.1,0,.15,0,.65,0,1.31.04,1.99.1.67.07,1.36.16,2.07.28.71.12,1.37.26,1.97.42.6.15,1.16.33,1.66.53l-2.15,6.03c-.65-.89-1.39-1.59-2.2-2.08-.81-.5-1.66-.75-2.55-.75h-.02c-.52,0-.89.1-1.12.31-.23.21-.35.48-.35.8,0,.3.22.59.68.87.45.28,1.16.6,2.11.97,2.48.93,4.08,1.85,4.81,2.76.71.89,1.06,1.99,1.05,3.3-.01,2.04-.79,3.59-2.35,4.67Z" class="cls-4"></path><path d="M161.11,13.28h-.92s.01,4.17.01,4.17c.25.07.48.1.7.1h0c.31,0,.6-.06.86-.16.26-.11.49-.25.68-.44.19-.19.33-.42.44-.69s.15-.57.15-.9c0-.65-.17-1.16-.51-1.53-.34-.37-.81-.55-1.41-.55Z" class="cls-4"></path><path d="M182.74,13.48l-.92-.02-.08,4.17c.25.07.48.11.7.11h.05c.29,0,.56-.05.81-.14.26-.1.5-.24.69-.43.19-.18.34-.41.45-.68.11-.27.17-.57.18-.89.01-.65-.15-1.17-.48-1.54-.33-.38-.8-.57-1.4-.58Z" class="cls-4"></path><path d="M238.73,8.9s-.06.04-.09.06c-.06.05-.12.1-.16.17,0,.01-.01.02-.01.03-.21.44.97.27,1.71.61.9.42,1.97,1.47,2.02,1.01,0-.01,0-.03,0-.04-.05-1.55-2.5-2.42-3.47-1.83Z" class="cls-4"></path><path d="M222.44,14.65l-.5-.02-.17,3.69h.2c.1.01.2.02.29.02.67,0,1.17-.12,1.5-.35.38-.27.59-.72.61-1.34.03-.58-.12-1.05-.45-1.41-.33-.36-.82-.55-1.48-.58Z" class="cls-4"></path></g><path d="M41.47,62.9c-3.6.13-6.89-.21-9.75-1.01h-.03c-.58-.17-1.16-.35-1.7-.55l-.05-.02c-8.39-3.06-11.58-10.06-11.76-15.12-.1-2.8.2-6.58.88-11.25v-.11s.04-.14.04-.14c.81-5.49,1.91-10.54,2.32-12.13.43-1.67,1.19-3.17,1.82-4.23-.17-.09-.35-.18-.54-.28-.98-.51-1.94-.99-2.94-1.49-.77-.38-1.16-.41-1.29-.41,0,0-.02,0-.02,0-.03.42-.64,8.63-4.85,16.29-.93,1.69-1.91,3.02-2.92,3.95-1.19,1.09-2.53,1.7-3.87,1.75-1.64.06-5.57-.7-6.6-8.97l-.03-.22c-.02-.22-.05-.43-.07-.66l-.03-.35c-.19-2.37,0-4.78.55-7.19.08-.37.18-.77.31-1.21.84-2.94,1.96-4.94,2.17-5.3.18-.35,1.19-2.28,2.77-4.24,2.45-3.04,5.01-4.62,7.58-4.71.16,0,.32,0,.48,0,3.96.16,9.34,3.84,13.15,6.9.42.34.79.64,1.09.89,1.88-1.29,6.09-3.73,11.33-3.93,6.23-.22,10.34,1.9,12.22,3.16,2.1-2.02,7.25-6.66,11.86-8.41.78-.3,1.58-.46,2.36-.49,4.75-.17,8.53,4.59,11.3,8.76,2.48,3.73,5.05,11.95,2.99,18.53-.47,1.49-1.1,2.68-1.89,3.52-.05.06-.12.12-.18.18-.88.87-1.97,1.35-3.14,1.39h0c-2.32.08-4.9-1.61-6.91-4.52-2.43-3.53-4.17-8.51-5.2-12.07l-.02-.05c-.24-.82-.46-1.66-.69-2.56v-.03s-.03-.11-.03-.11l-.06-.27-.08-.15v-.22c-.11-.42-.19-.78-.24-1.06,0-.02-.03-.15-.03-.15v-.02s0-.01,0-.02c-.12.02-.28.06-.5.14-.76.28-2.37,1.19-4.36,2.45,2.44,3.4,3.75,9.13,5.53,17.55.57,2.79,1.25,6.75,1.28,9.91.06,1.83-.16,6.48-3.55,10.69-3.53,4.4-9.29,6.91-17.1,7.47-.5.04-1.02.06-1.6.08Z" class="cls-1" id="Outline"></path><path d="M75.98,13.03c-4.05-6.1-7.76-9.25-11.86-7.69-5.37,2.04-11.79,8.5-12.27,8.99,0,0-4.19-3.94-12.29-3.65-6.54.25-11.46,4.35-11.46,4.35h0c-.08-.07-.82-.74-1.96-1.65-2.93-2.36-8.51-6.41-12.25-6.56-5.29-.21-9.45,8.16-9.45,8.16,0,0-1.18,1.96-2.04,4.98-.1.36-.2.74-.29,1.14-.45,1.96-.71,4.26-.51,6.72,0,.11.02.22.03.33.02.22.04.43.07.63,0,.07.02.14.02.21,1.02,8.17,5.1,8.91,7.93,6.3.82-.76,1.7-1.89,2.62-3.57,4.13-7.51,4.67-15.69,4.67-15.69,0,0,.19-2.48,3.51-.83,1.2.6,2.19,1.11,2.96,1.5,1.36.71,2.04,1.08,2.04,1.08h0s-.01.02-.02.02c-.2.26-1.85,2.48-2.53,5.13-.38,1.49-1.49,6.57-2.3,12.04,0,.01,0,.02,0,.03,0,0,0,0,0,.01-.57,3.9-1,8-.88,11.12.14,3.99,2.55,10.75,10.76,13.75h0c.52.2,1.07.37,1.64.53h.02c2.58.72,5.65,1.09,9.29.96.53-.02,1.04-.05,1.55-.08,16.91-1.2,19.41-11.67,19.24-16.61-.03-2.66-.54-6.13-1.25-9.63h0c-1.99-9.41-3.37-15.4-6.33-18.2.6-.39,4.44-2.91,6.11-3.54,1.81-.68,2.4.13,2.48.71,0,.05.03.18.07.39t0,0h0s0,.02,0,.02c.06.28.15.68.27,1.19h0s0,.02,0,.02c.03.14.07.3.11.46,0,0,0,.02,0,.02.18.73.41,1.62.7,2.6,0,.02.01.03.02.05,1.03,3.55,2.71,8.31,4.99,11.63,2.2,3.2,5.47,5.14,7.74,2.9.04-.04.09-.09.13-.13.61-.65,1.14-1.61,1.55-2.93,1.9-6.06-.49-13.74-2.81-17.23ZM60.9,35.08c-.17.06-.63.24-1.31.45-.07.02-.14.04-.21.07.56-.18,1.08-.36,1.58-.54-.01,0-.03.01-.05.02Z" class="cls-1"></path><path d="M60.95,35.06c-1.99-9.41-3.37-15.4-6.33-18.2-2.72-2.57-2.76-2.53-2.76-2.53,0,0-4.19-3.94-12.29-3.65-1.95,9.56-1.75,18.6,3.45,23.19,5.29,4.66,13.21,2.95,17.93,1.19Z" class="cls-3"></path><path d="M75.98,13.03c-4.05-6.1-7.76-9.25-11.86-7.69-5.37,2.04-11.79,8.5-12.27,8.99.97.83,1.88,1.72,2.76,2.53.6-.39,4.44-2.91,6.11-3.54,1.81-.68,2.4.13,2.48.71,0,.05.03.18.07.39t0,0h0s0,.02,0,.02c.06.28.15.68.27,1.19h0s0,.02,0,.02c.03.14.07.3.11.46,0,0,0,.02,0,.02.18.73.41,1.62.7,2.6,0,.02.01.03.02.05,1.03,3.55,2.71,8.31,4.99,11.63,2.2,3.2,5.47,5.14,7.74,2.9.04-.04.09-.09.13-.13.61-.65,1.14-1.61,1.55-2.93,1.9-6.06-.49-13.74-2.81-17.23Z" class="cls-3"></path><path d="M28.11,15.04c-.79.63-2.09,1.99-2.67,2.76,0,0-.68-.38-2.04-1.08-.77-.4-1.76-.9-2.96-1.5-3.32-1.66-3.51.83-3.51.83,0,0-.54,8.18-4.67,15.69-.92,1.67-1.8,2.81-2.62,3.57-2.83,2.61-6.91,1.87-7.93-6.3,0-.07-.02-.14-.02-.21-.02-.21-.04-.42-.07-.63,0-.11-.02-.22-.03-.33-.2-2.46.06-4.77.51-6.72.09-.39.19-.77.29-1.14.86-3.03,2.04-4.98,2.04-4.98,0,0,4.16-8.37,9.45-8.16,3.75.15,9.32,4.21,12.25,6.56,1.14.92,1.89,1.58,1.96,1.65h0Z" class="cls-3"></path><path d="M60.95,35.06s-.03.01-.05.02c-.17.06-.63.24-1.31.45-.08.03-.16.05-.25.08-.05.02-.1.03-.15.05-6.06,1.81-25.24,5.33-19.62-24.98-6.54.25-11.46,4.35-11.46,4.35-.79.63-2.09,1.99-2.67,2.76t0,0s-.01.01-.02.02c-.2.26-1.85,2.48-2.53,5.13-.38,1.49-1.49,6.57-2.3,12.04,0,.01,0,.02,0,.03,0,0,0,0,0,.01-.57,3.9-.99,8-.88,11.12.14,3.99,2.55,10.75,10.76,13.75h0c.52.2,1.07.37,1.64.53h.02c2.58.72,5.65,1.09,9.29.96.53-.02,1.04-.05,1.55-.08,16.91-1.2,19.41-11.67,19.24-16.61-.03-2.66-.54-6.13-1.25-9.63ZM32.06,31.31c-1.26.04-2.32-.94-2.36-2.2-.04-1.26.94-2.31,2.2-2.36s2.31.94,2.36,2.2-.94,2.31-2.2,2.36ZM49.86,52.18c-.23,2.79-2.52,5.03-5.38,5.13-2.63.09-4.91-1.65-5.59-4.08-.12-.42-.19-.87-.21-1.32,7.71-.27,11.09-3.49,11.2-.4,0,.23,0,.45-.02.67Z" class="cls-4"></path><path d="M49.87,51.5c0,.23,0,.45-.02.67-.23,2.79-2.52,5.03-5.38,5.13-2.63.09-4.91-1.65-5.59-4.08-.12-.42-.19-.87-.21-1.32,7.71-.27,11.09-3.49,11.2-.4Z" class="cls-3"></path><path d="M42.98,39.14s0,0,0,0c-.57-.03-1.15-.03-1.71-.01-.47.02-.92.05-1.36.09-3.39.35-5.5,1.57-5.43,3.64,0,.16.02.32.06.48.43,2.32,3.32,5.45,6.91,5.33,3.39-.12,5.89-2.9,6.37-5.44.07-.34.09-.68.08-1-.08-2.24-2.43-2.95-4.92-3.08ZM38.15,40.83c-.31.22-.83.51-1.3.83-.6.41-1.55,1.33-1.55.96,0-.19.07-.42.2-.65.41-.75,1.38-1.58,2.5-1.58.61,0,.52.17.15.43Z" class="cls-3"></path><path d="M34.25,28.95c.04,1.26-.94,2.31-2.2,2.36s-2.32-.94-2.36-2.2.94-2.31,2.2-2.36c1.26-.04,2.31.94,2.36,2.2Z" class="cls-3"></path><path d="M49.15,30.66c1.26-.04,2.24-1.1,2.2-2.36s-1.1-2.24-2.36-2.2-2.24,1.1-2.2,2.36,1.1,2.24,2.36,2.2Z" class="cls-4"></path><path d="M38.15,40.83c-.31.22-.83.51-1.3.83-.6.41-1.55,1.33-1.55.96,0-.19.07-.42.2-.65.41-.75,1.38-1.58,2.5-1.58.61,0,.52.17.15.43Z" class="cls-4"></path></svg>